<?xml version="1.0" encoding="UTF-8"?><svg id="Layer_2_Image" xmlns="http://www.w3.org/2000/svg" viewBox="0 0 110.94 121.52"><defs><style>.cls-1{fill:none;}.cls-2{fill:#01b75c;}.cls-3{fill:#010101;}.cls-4{fill:#01fc7f;}.cls-5{fill:#fcfdc6;}.cls-6{fill:#edeeba;}.cls-7{fill:#fff;}.cls-8{fill:#b7b7b7;}.cls-9{fill:#a2a37f;}</style></defs><path class="cls-1" d="M58.54,22.53c2.52,.48,4.85,1.54,6.87,3.36-2.03-1.83-4.37-2.9-6.9-3.38,0,0,.02,0,.03,.01Z"/><path class="cls-1" d="M44.48,24.52c-.65,.3-1.28,.64-1.9,1.01-.16,.1-.33,.18-.49,.29-9.48-.54-17.75-2.14-26.32,3.12-.25,.15-1.78,1.25-2.14,1.31,0,0,0,0-.01,.01,.33-.02,1.92-1.16,2.17-1.32,8.57-5.26,16.83-3.66,26.32-3.12-.05,.04-.09,.08-.14,.11,.05-.04,.09-.08,.14-.11,.16-.1,.33-.19,.49-.29,.62-.37,1.25-.71,1.9-1.01,.09-.04,.18-.07,.27-.11,0,0,0,0,0-.01-.09,.04-.19,.07-.28,.12Z"/><path class="cls-1" d="M92.17,78.56c.56-.45,1-1.05,1.26-1.9-.25,.81-.7,1.42-1.26,1.9Z"/><path class="cls-1" d="M80.2,51.87c2.42,2.01,5.23,3.95,8.13,5.39,3.31,1.64,6.43,3.52,9.24,5.74-2.82-2.23-5.93-4.11-9.25-5.75-2.9-1.44-5.7-3.37-8.12-5.38Z"/><path class="cls-1" d="M99.72,32.89s0,.02,0,.03c2.53,10.38,5.03,20.76,7.6,31.13,.79,3.19,.97,5.62,.4,10.33,0,0,0,0,0,0,.57-4.71,.39-7.14-.4-10.33-2.57-10.38-5.07-20.78-7.61-31.17Z"/><path class="cls-7" d="M49.96,14.31c5.13-.28,7.28-1.8,11-5.91,.47-.52,1.72-2.06,1.27-2.92-.5-.98-1.74-.38-2.51-.04-3.71,1.62-8.18,2.71-11.18,4.4-1.23,.69-3.97,1.56-3.47,3.19,.54,1.78,2.95,1.38,4.88,1.27Z"/><path class="cls-7" d="M99.72,32.89c-.12-.49-.24-.98-.36-1.48,0,0,0,0,0,0,.12,.5,.24,1,.37,1.5,0-.01,0-.02,0-.03Z"/><path class="cls-7" d="M86.39,25.28c-3.71,0-6.24,3.61-6.75,5.8-.79,3.41-.22,5.23,2.15,7.54,.53,.52,2.72,2.42,3.37,2.73,2.56,1.25,4.86,2.54,7.46,1.39,2.53-1.11,3.36-3.44,3.46-6.06,.05-2.11-.6-4.09-1.59-5.83-1.69-2.98-4.38-5.57-8.11-5.57Z"/><path class="cls-7" d="M81.8,23.88c-3.5,1.57-5.82,5.58-5.18,10.11,.52,3.66,2.25,6.36,4.78,8.38-2.53-2.02-4.25-4.72-4.77-8.38-.64-4.53,1.68-8.54,5.18-10.11,4.3-1.93,8.32-1.38,11.83,1.4-3.51-2.79-7.53-3.34-11.84-1.41Z"/><path class="cls-7" d="M61.87,26.94c-5.19-2.68-10.42-2.79-15.61-.36-.19,.09-.38,.19-.57,.29,6.77,2.73,14,6.06,19.91,10.43,1.81-3.92,.38-8.25-3.73-10.37Z"/><path class="cls-7" d="M52.21,22.4c-1.33,.17-2.65,.41-3.95,.76-1.19,.32-2.36,.74-3.49,1.24,0,0,0,0,0,.01,1.14-.51,2.31-.93,3.51-1.25,1.29-.35,2.61-.59,3.95-.76,2.19-.27,4.32-.26,6.32,.12,0,0-.02,0-.03-.01-2-.38-4.12-.39-6.3-.12Z"/><path class="cls-3" d="M109.17,58.83c-1.69-8.55-4.5-16.86-6.38-25.37-.42-1.89-.82-3.77-1.27-5.63,1.1-1.75,2.22-3.49,3.34-5.24,1.1-1.73,2.18-3.47,3.28-5.19,.45-.7,.82-1.51,1.32-2.17,.94-1.24,1.94-1.91,1.26-3.6-.65-1.63-2.44-2.54-3.81-3.5-1.92-1.34-3.65-2.81-5.44-4.33-1.1-.93-2.24-1.79-3.41-2.63-1.15-.83-2.14-1.45-3.59-1.03-.93,.27-1.47,1.06-2.13,1.71-.75,.74-1.49,1.49-2.2,2.26-.63,.68-1.23,1.37-1.83,2.08-2.14-1.56-4.51-2.9-7.23-4.08-1.63-.71-3.5-1.32-6.68-1.32-3.67,0-4.02,0-7.77,.44-16.16,2.93-29.02,12.08-43.55,18.73C13.2,24.46,5.67,32.05,1.47,42.47c-.71,1.75-1.12,3.84-1.4,5.23-.1,.94-.08,1.51-.02,2.08,.78,6.52,5.37,11.67,10.03,16.28q3.87,3.83,1.56,8.82c-2.26,4.85-4.42,9.64-4.67,15.2-.39,8.64,3.62,14.85,10.49,19.11,9.79,6.08,20.72,9.38,31.98,11.7,2.05,.42,2.3,.45,4.81,.57,.67,.03,2.89,.12,3.55,.03,2.83-.38,4.74-.5,7.27-1.54,7.93-3.26,15.22-7.09,17.58-16.06,1.09-4.14,1.97-8.4,1-12.77-.38-1.7,.65-1.44,1.76-1.05,4.47,1.59,9.01,1.29,13.43-.02,7.19-2.13,10.51-7.71,11.48-14.77,.1-.71,.25-2,.25-2.83,0-1.33-.09-3.57-.25-5.52-.37-3.55-.44-4.54-1.14-8.1ZM48.55,9.84c3-1.69,7.47-2.78,11.18-4.4,.78-.34,2.01-.94,2.51,.04,.45,.87-.81,2.41-1.27,2.92-3.72,4.11-5.87,5.63-11,5.91-1.94,.11-4.34,.5-4.88-1.27-.5-1.64,2.24-2.5,3.47-3.19Zm17.76,107.06c-5.59,1.94-9.58,2.12-11.78,1.67-9.26-.21-17.62-4.05-26.12-7.14-4.68-1.71-8.89-4.14-12.74-7.29-5.73-4.68-7.35-13.36-4.17-21.62,2.82-7.33,7.17-13.96,9.69-21.42,.31-.93,.67-1.84,1.01-2.76-.2-.94-.67-1.93-1.61-1.95-.94-.01-1.29,.95-1.59,1.9-.65,2.02-1.71,1.52-2.81,.24-5.16-5.98-3.37-15.18,3.63-19.3,6.25-3.67,13.13-3.61,19.78-2.72,10.58,1.42,19.18,6.64,25.89,15.26,5.13,6.59,12.67,10.47,19.54,15.03,2.13,1.42,4.28,2.81,6.07,4.7,1.4,1.48,3.02,2.97,2.35,5.15-.26,.85-.7,1.45-1.26,1.9-1,.85-2.38,1.29-3.72,1.68-.31,.09-.66,.03-.99,.04-6.96,.29-8.03-.96-7.9-9.27,0-.5,.07-.99,.14-1.49,.14-1.07-.33-2-1.33-1.99-.73,0-1.34,.81-1.33,1.82,.01,1.83-.07,3.65-.11,5.48,.75,5.15,2.62,10.09,3.47,15.15,2.11,12.67-.84,22.31-14.09,26.92ZM40.36,31.46c.91-1.33,1.88-2.57,3.17-3.39,.81-.52,.88-.51,2.17-1.19,0,0,0,0,0,0,.19-.1,.38-.2,.57-.29,5.18-2.43,10.42-2.32,15.61,.36,4.12,2.12,5.55,6.45,3.73,10.37-.58,1.9-2.06,3.14-3.34,4.53-.72,.78-1.42,.76-2.37,.07-5.61-4.12-11.77-7.05-18.71-8.14-1.64-.26-1.58-1.21-.83-2.31Zm67.37,42.93c-.04,7.3-5.41,12.45-12.65,13.5-4.17,.61-7.79-.46-11.58-1.55-1.09-.32-1.49-.81-1.46-1.9,.04-1.53,1.16-1.16,1.97-1.14,2.4,.05,4.79-.04,7.08-.79,2.75-.9,4.98-2.56,5.4-5.54,.54-3.87-1.8-6.67-4.51-8.88-2.86-2.34-6.09-4.24-9.19-6.28-6.57-4.32-13.16-8.56-17.79-15.22-1.13-1.62-1.14-2.5,.21-3.74,1.02-.94,1.94-2.22,2.57-3.28,1.82-3.76,2.24-8.39-.87-12.11-.48-.57-.97-1.09-1.49-1.55-2.02-1.82-4.35-2.88-6.87-3.36-2.01-.38-4.13-.4-6.32-.12-1.33,.17-2.65,.41-3.95,.76-1.2,.32-2.37,.74-3.51,1.25-.09,.04-.18,.07-.27,.11-.65,.3-1.28,.64-1.9,1.01-.16,.1-.33,.18-.49,.29-.05,.04-.09,.08-.14,.11-.47,.39-.95,.78-1.43,1.17-1.56,1.28-3,2.65-3.6,4.82-.4,1.44-1.85,1.39-3.14,1.36-6.31-.14-12.39,.73-17.48,4.87-6.86,5.56-8.69,16.02-1.86,22.84,1.09,1.09,3.84,2.2,1.7,4.24-1.94,1.84-3.31-.65-4.42-1.75-2.23-2.2-4.33-4.6-6.1-7.18-3.91-5.68-3.01-12.56,2.1-19.47,1.77-2.39,3.74-4.57,5.9-6.58,0,0,0,0,.01-.01,0,0-.02,0-.02,0,4.82-5.08,10.56-7.95,16.68-11.04,1.93-.97,2.6-1.22,3.02-1.44,4.06-2.16,7.98-2.83,13.37-1.01,5.89,2,14.66-3.21,16.53-6.52,.88-1.55,1.26-2.59,1.49-3.71,.76-3.69,3.59-3.71,6.47-3.69,6.49,.05,11.77,1.68,15.95,4.73-.75,.91-1.49,1.83-2.24,2.74-1.45,1.76-3.21,3.62-4.06,5.76-.45,1.15,1.1,1.69,1.85,1.08,.14-.11,.26-.24,.39-.36,1.18-1.07,2.17-2.45,3.16-3.67,1.38-1.71,2.79-3.4,4.2-5.09,1.27-1.52,2.48-3.07,3.61-4.7,.18-.26,.39-.68,.64-.88,.51-.39,.58-.15,1.03,.25,1.15,1.02,2.23,2.12,3.39,3.14,1.68,1.48,3.28,3,5.09,4.32,1.17,.85,2.34,1.7,3.46,2.61,.03,.02,.04,.06,.06,.08-.03,.06-.07,.14-.14,.25-.32,.53-.54,1.14-.85,1.68-.34,.59-.69,1.17-1.05,1.75-.96,1.5-2.01,2.94-3.03,4.4-1.32,1.88-2.6,3.78-3.87,5.68-.24,.36-.48,.71-.72,1.06-.34,.5-.67,1.01-.99,1.52-.71-1.17-1.61-2.3-2.74-3.31-.23-.21-.46-.4-.7-.59-3.51-2.78-7.53-3.33-11.83-1.4-3.5,1.57-5.82,5.58-5.18,10.11,.52,3.66,2.24,6.36,4.77,8.38,1.52,1.21,3.33,2.18,5.34,2.97,7.68,2.99,12.44-2.97,12.28-10.19-.05-.77-.19-1.59-.43-2.44,.03-.04,.06-.07,.08-.12,.22-.39,.45-.78,.68-1.17,0,0,0,0,0,0,.12,.49,.24,.98,.36,1.48,2.54,10.39,5.03,20.79,7.61,31.17,.79,3.19,.97,5.62,.4,10.33Zm-11.64-37.71c-.1,2.62-.93,4.94-3.46,6.06-2.6,1.14-4.9-.14-7.46-1.39-.65-.32-2.84-2.22-3.37-2.73-2.37-2.3-2.94-4.12-2.15-7.54,.51-2.19,3.03-5.8,6.75-5.8,3.72,0,6.41,2.59,8.11,5.57,.99,1.74,1.64,3.72,1.59,5.83Z"/><path class="cls-5" d="M59.89,111.02c6.05-11.1,8.95-22.78,11.36-35.09,.37-1.9,.12-4.05-.38-5.89-.08-.28-.17-.56-.26-.87-10.2-9.11-19.81-17.68-33.89-18.79-5.5-.43-9.94,2.08-13.19,6.59-.37,.51-.5,.64-1.34,1.36-.34,.92-.7,1.83-1.01,2.76-2.52,7.46-6.88,14.09-9.69,21.42-3.17,8.26-1.55,16.94,4.17,21.62,3.85,3.14,8.05,5.58,12.74,7.29,8.5,3.1,16.87,6.94,26.12,7.14,2.61-1.81,3.92-4.92,5.36-7.55Zm-23.28-40.67c-1.15,1.44-2.73,2.73-4.75,1.68-1.94-1.01-2.65-2.2-2.8-4.95-.03-3.15,1.17-5.75,3.03-8.06,1.13-1.4,2.66-2.45,4.52-2.06,1.89,.39,2.63,2.27,2.73,3.8,.23,3.44-.52,6.81-2.74,9.58Zm15.78,6.42c-2.19-.97-2.68-2.64-2.82-4.95-.11-2.57,.74-4.71,1.57-6.85,.77-1.98,2.09-3.72,4.26-3.49,2.36,.25,3.61,2.24,3.88,4.55,.36,3.03-.52,5.88-2.19,8.35-1.02,1.51-2.37,3.27-4.7,2.38Z"/><path class="cls-4" d="M74.36,46.07c1.38,1.71,3.42,3.79,5.84,5.8,2.42,2.01,5.22,3.95,8.12,5.38,3.32,1.64,6.43,3.52,9.25,5.75,2.82,2.22,5.34,4.79,7.48,7.81,.39,.55,.79,1.1,1.16,1.69,.39,.62,1.05,1.29,1.5,1.88,.57-4.71,.39-7.14-.4-10.33-2.57-10.37-5.06-20.76-7.6-31.13-.12-.5-.24-1-.37-1.5-.23,.39-.46,.78-.68,1.17-.02,.04-.05,.08-.08,.12,.24,.85,.38,1.67,.43,2.44,.16,7.22-4.6,13.18-12.28,10.19-2.01-.78-3.82-1.75-5.34-2.97-2.53-2.02-4.26-4.72-4.78-8.38-.64-4.53,1.68-8.54,5.18-10.11,4.31-1.93,8.33-1.38,11.84,1.41,.23,.19,.47,.38,.7,.59,1.13,1.01,2.03,2.14,2.74,3.31,.32-.51,.65-1.02,.99-1.52,.24-.35,.48-.7,.72-1.06,1.28-1.9,2.56-3.8,3.87-5.68,1.02-1.46,2.07-2.9,3.03-4.4,.37-.57,.72-1.16,1.05-1.75,.31-.54,.53-1.15,.85-1.68,.07-.11,.11-.19,.14-.25-.02-.03-.04-.06-.06-.08-1.12-.91-2.29-1.76-3.46-2.61-1.82-1.32-3.41-2.84-5.09-4.32-1.16-1.02-2.23-2.12-3.39-3.14-.45-.4-.53-.64-1.03-.25-.26,.2-.46,.61-.64,.88-1.13,1.63-2.34,3.18-3.61,4.7-1.41,1.69-2.81,3.38-4.2,5.09-.99,1.22-1.98,2.6-3.16,3.67-.13,.12-.25,.25-.39,.36-.75,.61-2.31,.07-1.85-1.08,.85-2.15,2.6-4,4.06-5.76,.75-.91,1.49-1.82,2.24-2.74-4.19-3.05-9.47-4.69-15.95-4.73-2.88-.02-5.71,0-6.47,3.69-.23,1.12-.61,2.15-1.49,3.71-1.87,3.31-10.64,8.51-16.53,6.52-5.38-1.83-9.3-1.15-13.37,1.01-.42,.22-1.09,.47-3.02,1.44-6.12,3.09-11.86,5.96-16.68,11.04,0,0,.02,0,.02,0,.36-.05,1.9-1.16,2.14-1.31,8.57-5.26,16.83-3.66,26.32-3.12,.16-.1,.33-.19,.49-.29,.62-.37,1.25-.71,1.9-1.01,.09-.04,.19-.07,.28-.12,1.13-.51,2.3-.92,3.49-1.24,1.29-.35,2.61-.59,3.95-.76,2.18-.27,4.3-.26,6.3,.12,2.53,.48,4.87,1.55,6.9,3.38,.52,.47,1.02,.98,1.49,1.55,3.11,3.72,2.69,8.35,.87,12.11,.64,.38,.83,.69,1.12,.93,2.03,1.67,3.84,3.57,5.47,5.59Z"/><path class="cls-9" d="M23.54,56.98c3.25-4.51,7.69-7.02,13.19-6.59,14.08,1.11,23.68,9.68,33.89,18.79,2.19,1.85,3.83,3.91,6.31,5.65,.04-1.83,.13-3.65,.11-5.48,0-1.01,.6-1.82,1.33-1.82,1.01,0,1.47,.92,1.33,1.99-.06,.49-.13,.99-.14,1.49-.13,8.3,.93,9.55,7.9,9.27,.33-.01,.68,.05,.99-.04,1.34-.38,2.72-.82,3.72-1.68,.56-.48,1.01-1.09,1.26-1.9,.67-2.18-.95-3.67-2.35-5.15-1.79-1.89-3.94-3.28-6.07-4.7-6.87-4.57-14.4-8.45-19.54-15.03-6.72-8.62-15.31-13.84-25.89-15.26-6.65-.89-13.53-.95-19.78,2.72-7,4.11-8.78,13.32-3.63,19.3,1.1,1.28,2.16,1.78,2.81-.24,.31-.95,.65-1.91,1.59-1.9,.95,.01,1.41,1.01,1.61,1.95,.83-.72,.97-.85,1.34-1.36Z"/><path class="cls-6" d="M76.92,74.83c-2.49-1.74-4.13-3.79-6.31-5.65,.09,.31,.18,.59,.26,.87,.5,1.83,.75,3.98,.38,5.89-2.41,12.31-5.31,23.98-11.36,35.09-1.43,2.63-2.75,5.73-5.36,7.55,2.2,.45,6.19,.27,11.78-1.67,13.24-4.61,16.2-14.25,14.09-26.92-.84-5.06-2.71-10-3.47-15.15Z"/><path class="cls-2" d="M106.22,72.5c-.37-.59-.77-1.13-1.16-1.69-2.14-3.02-4.67-5.59-7.48-7.81-2.82-2.22-5.93-4.1-9.24-5.74-2.91-1.44-5.71-3.38-8.13-5.39-2.42-2.01-4.46-4.08-5.84-5.8-1.63-2.02-3.44-3.92-5.47-5.59-.29-.24-.48-.55-1.12-.93-.62,1.07-1.55,2.35-2.57,3.28-1.35,1.24-1.34,2.12-.21,3.74,4.62,6.66,11.21,10.9,17.79,15.22,3.1,2.04,6.33,3.94,9.19,6.28,2.71,2.21,5.05,5.01,4.51,8.88-.41,2.99-2.64,4.65-5.4,5.54-2.3,.75-4.68,.84-7.08,.79-.81-.02-1.93-.4-1.97,1.14-.03,1.09,.37,1.59,1.46,1.9,3.79,1.1,7.41,2.16,11.58,1.55,7.23-1.05,12.61-6.21,12.65-13.5,0,0,0,0,0,0-.45-.59-1.11-1.26-1.5-1.88Z"/><path class="cls-2" d="M15.79,28.94c-.25,.15-1.84,1.29-2.17,1.32-2.17,2.02-4.13,4.19-5.9,6.58-5.11,6.91-6,13.79-2.1,19.47,1.78,2.58,3.87,4.98,6.1,7.18,1.11,1.1,2.48,3.59,4.42,1.75,2.14-2.03-.61-3.14-1.7-4.24-6.83-6.83-5-17.28,1.86-22.84,5.09-4.13,11.17-5.01,17.48-4.87,1.3,.03,2.75,.07,3.14-1.36,.6-2.17,2.04-3.54,3.6-4.82,.47-.39,.95-.77,1.43-1.17,.05-.04,.09-.08,.14-.11-9.48-.54-17.75-2.14-26.32,3.12Z"/><path class="cls-8" d="M59.9,41.9c.95,.7,1.65,.72,2.37-.07,1.27-1.38,2.76-2.62,3.34-4.53-5.91-4.38-13.14-7.7-19.91-10.43,0,0,0,0,0,0-1.29,.68-1.36,.68-2.17,1.19-1.28,.82-2.26,2.06-3.17,3.39-.75,1.1-.81,2.05,.83,2.31,6.94,1.09,13.1,4.02,18.71,8.14Z"/><path class="cls-3" d="M36.61,56.97c-1.86-.39-3.39,.66-4.52,2.06-1.86,2.31-3.07,4.92-3.03,8.06,.15,2.74,.86,3.94,2.8,4.95,2.02,1.05,3.6-.25,4.75-1.68,2.22-2.77,2.97-6.14,2.74-9.58-.1-1.53-.84-3.41-2.73-3.8Z"/><path class="cls-3" d="M57.08,74.39c1.67-2.46,2.55-5.31,2.19-8.35-.27-2.31-1.52-4.3-3.88-4.55-2.17-.23-3.49,1.51-4.26,3.49-.83,2.14-1.68,4.27-1.57,6.85,.15,2.31,.63,3.97,2.82,4.95,2.33,.89,3.67-.87,4.7-2.38Z"/></svg>