<?xml version="1.0" standalone="no"?>
<!DOCTYPE svg PUBLIC "-//W3C//DTD SVG 20010904//EN"
 "http://www.w3.org/TR/2001/REC-SVG-20010904/DTD/svg10.dtd">
<svg version="1.0" xmlns="http://www.w3.org/2000/svg"
 width="260.000000pt" height="294.000000pt" viewBox="0 0 260.000000 294.000000"
 preserveAspectRatio="xMidYMid meet">

<g transform="translate(0.000000,294.000000) scale(0.100000,-0.100000)"
fill="#000000" stroke="none">
<path d="M1205 2665 c-223 -31 -401 -127 -590 -319 -125 -128 -205 -240 -274
-388 -77 -164 -96 -241 -96 -388 0 -133 10 -179 55 -261 48 -88 165 -197 268
-248 60 -31 193 -81 213 -81 34 0 41 -24 25 -87 -55 -216 -33 -348 77 -457 96
-95 210 -138 419 -157 188 -17 203 -17 206 6 2 14 27 32 84 58 103 49 169 111
210 195 28 59 31 75 30 156 0 55 -8 124 -20 176 -21 88 -18 110 17 110 26 0
146 46 220 85 141 74 237 173 288 295 35 85 44 250 19 358 -77 340 -331 677
-637 845 -83 46 -225 93 -304 101 -33 4 -73 8 -90 10 -16 2 -70 -2 -120 -9z
m-23 -246 c124 -63 123 -251 -2 -377 -107 -106 -275 -133 -363 -56 -36 30 -66
98 -67 146 0 56 36 140 81 192 98 111 241 150 351 95z m-479 -470 c91 -41 38
-201 -71 -216 -35 -5 -44 -1 -67 22 -24 23 -27 32 -22 72 6 54 31 92 78 115
40 21 50 22 82 7z m209 -134 c9 -19 8 -29 -5 -49 -31 -47 -87 -42 -87 8 0 59
69 90 92 41z m251 -895 c139 -11 260 -7 499 17 l47 5 16 -54 c23 -78 36 -186
29 -238 -4 -25 -17 -66 -30 -91 -24 -48 -85 -109 -109 -109 -20 0 -24 23 -23
136 0 110 -12 148 -56 178 -79 51 -221 16 -269 -68 -7 -13 -14 -80 -17 -171
l-5 -150 -48 2 c-110 4 -244 76 -297 160 -45 71 -55 138 -36 242 9 47 21 103
27 125 l11 38 56 -5 c31 -4 123 -11 205 -17z m361 -207 c26 -26 27 -27 24
-162 -3 -120 -5 -136 -20 -139 -16 -3 -18 5 -18 62 0 90 -29 165 -82 210 -22
19 -37 39 -33 45 3 6 28 11 54 11 39 0 53 -5 75 -27z"/>
</g>
</svg>
